<?xml version="1.0" encoding="iso-8859-1"?>
<!-- Generator: Adobe Illustrator 19.0.0, SVG Export Plug-In . SVG Version: 6.00 Build 0)  -->
<svg version="1.1" id="Layer_1" xmlns="http://www.w3.org/2000/svg" xmlns:xlink="http://www.w3.org/1999/xlink" x="0px" y="0px"
	 viewBox="0 0 512 512" style="enable-background:new 0 0 512 512;" xml:space="preserve">
<g>
	<g>
		<path d="M428.018,194.217c2.088-9.158,3.14-18.553,3.14-28.044c0-69.342-56.412-125.754-125.754-125.754
			c-56.057,0-105.517,37.724-120.855,90.895c-4.579-0.711-9.219-1.07-13.882-1.07c-46.636,0-85.088,35.728-89.417,81.25
			C35.728,215.822,0,254.274,0,300.91c0,49.531,40.294,89.825,89.825,89.825c4.961,0,8.982-4.022,8.982-8.982
			c0-4.96-4.022-8.982-8.982-8.982c-39.623,0-71.86-32.237-71.86-71.86c0-39.623,32.237-71.86,71.86-71.86
			c4.961,0,8.982-4.022,8.982-8.982c0-39.623,32.237-71.86,71.86-71.86c6.18,0,12.312,0.785,18.228,2.329
			c2.386,0.631,4.908,0.241,6.991-1.044c2.088-1.289,3.557-3.382,4.07-5.781c10.474-49.443,54.825-85.329,105.447-85.329
			c59.434,0,107.789,48.355,107.789,107.789c0,11.355-1.754,22.535-5.215,33.224c-0.869,2.68-0.43,5.61,1.184,7.917
			c1.614,2.307,4.219,3.724,7.031,3.829c43.649,1.588,77.842,37.075,77.842,80.785c0,44.338-36.061,80.601-80.39,80.842
			c-4.961,0.026-8.961,4.011-8.934,8.972c0.026,4.944,4.044,8.876,8.982,8.876c0.013,0,0.031,0,0.048,0
			c54.18,0,98.259-44.559,98.259-98.749C512,242.233,475.926,201.335,428.018,194.217z"/>
	</g>
</g>
<g>
	<g>
		<path d="M200.456,256.458c-4.728-1.574-9.798,0.978-11.364,5.68l-8.982,26.947c-1.57,4.706,0.974,9.794,5.68,11.364
			c0.943,0.316,1.904,0.465,2.842,0.465c3.763,0,7.268-2.381,8.522-6.145l8.982-26.947
			C207.706,263.116,205.162,258.028,200.456,256.458z"/>
	</g>
</g>
<g>
	<g>
		<path d="M173.509,346.283c-4.719-1.583-9.794,0.978-11.364,5.68l-8.982,26.947c-1.57,4.706,0.974,9.794,5.68,11.364
			c0.943,0.316,1.904,0.465,2.842,0.465c3.763,0,7.268-2.381,8.522-6.145l8.982-26.947
			C180.759,352.941,178.215,347.853,173.509,346.283z"/>
	</g>
</g>
<g>
	<g>
		<path d="M146.562,427.125c-4.728-1.574-9.798,0.978-11.364,5.68l-8.982,26.947c-1.57,4.706,0.974,9.794,5.68,11.364
			c0.943,0.316,1.904,0.465,2.842,0.465c3.763,0,7.268-2.381,8.522-6.145l8.982-26.947
			C153.812,433.783,151.268,428.695,146.562,427.125z"/>
	</g>
</g>
<g>
	<g>
		<path d="M290.281,229.511c-4.715-1.588-9.794,0.978-11.364,5.68l-8.982,26.947c-1.57,4.706,0.974,9.794,5.68,11.364
			c0.943,0.316,1.904,0.465,2.842,0.465c3.763,0,7.268-2.381,8.522-6.145l8.982-26.947
			C297.531,236.169,294.987,231.081,290.281,229.511z"/>
	</g>
</g>
<g>
	<g>
		<path d="M263.333,319.336c-4.724-1.574-9.798,0.978-11.364,5.68l-8.982,26.947c-1.57,4.706,0.974,9.794,5.68,11.364
			c0.943,0.316,1.904,0.465,2.842,0.465c3.763,0,7.268-2.382,8.522-6.145l8.982-26.947
			C270.583,325.994,268.04,320.906,263.333,319.336z"/>
	</g>
</g>
<g>
	<g>
		<path d="M236.386,400.178c-4.715-1.583-9.794,0.978-11.364,5.68l-8.982,26.947c-1.57,4.706,0.974,9.794,5.68,11.364
			c0.943,0.316,1.904,0.465,2.842,0.465c3.763,0,7.268-2.381,8.522-6.145l8.982-26.947
			C243.636,406.836,241.092,401.748,236.386,400.178z"/>
	</g>
</g>
<g>
	<g>
		<path d="M353.158,310.353c-4.733-1.574-9.794,0.978-11.364,5.68l-8.982,26.947c-1.57,4.706,0.974,9.794,5.68,11.364
			c0.943,0.316,1.904,0.465,2.842,0.465c3.763,0,7.268-2.381,8.522-6.145l8.982-26.947
			C360.408,317.011,357.864,311.923,353.158,310.353z"/>
	</g>
</g>
<g>
	<g>
		<path d="M326.211,400.178c-4.724-1.583-9.798,0.978-11.364,5.68l-8.982,26.947c-1.57,4.706,0.974,9.794,5.68,11.364
			c0.943,0.316,1.904,0.465,2.842,0.465c3.763,0,7.268-2.381,8.522-6.145l8.982-26.947
			C333.461,406.836,330.917,401.748,326.211,400.178z"/>
	</g>
</g>
<g>
</g>
<g>
</g>
<g>
</g>
<g>
</g>
<g>
</g>
<g>
</g>
<g>
</g>
<g>
</g>
<g>
</g>
<g>
</g>
<g>
</g>
<g>
</g>
<g>
</g>
<g>
</g>
<g>
</g>
</svg>
